<?xml version="1.0" encoding="utf-8" standalone="no"?>
<!DOCTYPE svg PUBLIC "-//W3C//DTD SVG 20010904//EN" "http://www.w3.org/TR/2001/REC-SVG-20010904/DTD/svg10.dtd"[]>
<svg version="1.0" xmlns="http://www.w3.org/2000/svg" width="616" height="277.2" viewBox="0 154 616 277.2" preserveAspectRatio="xMidYMid meet">
  <g transform="translate(0.000000,616.000000) scale(0.100000,-0.100000)" fill="#000000" stroke="none">
    <path d="M5072 4290 c-18 -11 -37 -32 -43 -47 -6 -17 -9 -241 -7 -637 l3 -611 25 -49 c14 -28 42 -64 63 -80 36 -29 44 -31 122 -31 96 0 127 15 159 79 16 33 17 43 7 78 -7 21 -15 38 -19 36 -4 -2 -20 -10 -35 -18 -35 -17 -77 -4 -94 30 -17 32 -16 965 0 1080 18 130 16 141 -22 167 -44 30 -113 31 -159 3z" />
    <path d="M1056 4234 c-185 -45 -325 -195 -380 -409 -29 -111 -40 -274 -27 -397 22 -216 73 -342 180 -448 104 -102 204 -140 371 -140 163 0 308 45 395 121 40 36 74 98 75 137 0 64 -61 112 -143 112 l-45 0 -11 -46 c-27 -105 -90 -188 -170 -221 -53 -22 -147 -20 -201 4 -136 60 -210 272 -210 598 1 358 84 564 247 611 85 25 186 1 240 -58 27 -28 59 -99 68 -150 7 -35 10 -38 42 -38 41 0 106 32 127 62 20 28 20 90 1 128 -17 32 -79 79 -140 105 -106 44 -300 58 -419 29z" />
    <path d="M2148 3881 c-158 -43 -262 -158 -304 -337 -23 -100 -15 -325 16 -412 44 -123 143 -224 265 -267 64 -23 223 -31 298 -15 129 26 246 117 300 233 74 156 74 418 0 574 -32 69 -109 152 -170 186 -108 58 -272 74 -405 38z m243 -86 c94 -49 149 -206 149 -425 0 -314 -105 -477 -282 -439 -126 27 -185 151 -193 404 -7 265 51 427 171 471 43 15 112 10 155 -11z" />
    <path d="M2949 3886 c-14 -9 -34 -26 -43 -40 -18 -28 -21 -97 -6 -127 10 -18 12 -18 35 -3 32 21 61 10 74 -28 7 -20 11 -159 11 -393 0 -235 4 -373 11 -393 23 -67 120 -91 206 -53 l42 19 -16 49 c-13 37 -17 103 -19 298 -3 257 5 344 40 443 43 120 133 167 197 103 25 -26 29 -37 29 -88 0 -38 -7 -72 -19 -96 -23 -46 -12 -58 58 -65 94 -9 161 48 169 144 7 82 -5 121 -50 170 -51 55 -121 79 -213 72 -103 -9 -159 -47 -214 -148 -29 -52 -31 -53 -31 -24 0 40 -44 124 -78 149 -35 26 -145 32 -183 11z" />
    <path d="M4114 3886 c-153 -35 -228 -111 -229 -233 0 -52 4 -68 30 -105 43 -61 85 -80 161 -75 34 3 72 12 87 22 l26 17 -29 24 c-36 31 -54 83 -48 145 9 90 63 132 169 131 130 0 184 -78 196 -283 l6 -96 -94 -6 c-246 -17 -465 -121 -528 -250 -28 -57 -28 -165 -2 -223 68 -149 323 -168 487 -35 32 25 77 74 101 109 37 54 43 60 47 40 28 -150 47 -188 107 -218 53 -27 139 -27 189 1 61 35 85 95 59 152 -11 23 -12 24 -40 10 -38 -19 -72 -10 -87 22 -8 18 -12 102 -12 258 0 128 -5 261 -11 297 -23 142 -92 237 -208 281 -72 28 -282 36 -377 15z m369 -544 c10 -16 -16 -120 -45 -179 -48 -98 -163 -192 -236 -193 -141 -1 -166 198 -36 295 60 46 127 64 301 84 6 0 14 -2 16 -7z" />
    <path d="M1620 2638 c-55 -75 -32 -82 30 -8 37 44 39 50 21 50 -13 0 -32 -16 -51 -42z" />
    <path d="M2086 2664 c-7 -19 10 -44 29 -44 7 0 18 7 25 15 10 12 10 18 0 30 -16 20 -46 19 -54 -1z" />
    <path d="M5290 2665 c-10 -12 -10 -18 0 -30 7 -8 18 -15 25 -15 7 0 18 7 25 15 10 12 10 18 0 30 -7 8 -18 15 -25 15 -7 0 -18 -7 -25 -15z" />
    <path d="M3174 2656 c-67 -29 -85 -112 -40 -178 l23 -35 -34 -19 c-112 -60 -110 -207 2 -250 41 -15 55 -16 103 -6 35 7 71 24 95 43 l39 31 36 -35 c33 -31 82 -57 82 -43 0 2 -23 27 -51 53 l-51 49 21 42 c22 43 28 92 11 92 -5 0 -13 -12 -16 -27 -4 -16 -13 -41 -21 -57 l-15 -29 -95 94 c-52 52 -101 106 -109 121 -35 67 1 138 71 138 47 0 71 -14 90 -51 9 -16 20 -27 25 -24 19 12 10 37 -24 71 -38 38 -85 45 -142 20z m84 -309 l83 -83 -23 -22 c-29 -26 -89 -52 -123 -52 -47 0 -94 27 -111 63 -24 51 -12 97 36 141 22 20 44 36 48 36 4 0 45 -37 90 -83z" />
    <path d="M1246 2634 c-3 -9 -6 -40 -6 -70 0 -53 0 -54 -30 -54 -20 0 -30 -5 -30 -15 0 -10 10 -15 30 -15 l30 0 0 -140 c0 -127 2 -142 20 -160 25 -25 80 -26 110 -2 30 25 18 49 -13 27 -30 -21 -53 -19 -71 7 -12 17 -16 50 -16 145 l0 123 60 0 c47 0 60 3 60 15 0 12 -13 15 -60 15 l-60 0 0 70 c0 66 -10 90 -24 54z" />
    <path d="M1866 2609 c-3 -17 -6 -46 -6 -64 0 -28 -4 -33 -30 -38 -16 -4 -30 -11 -30 -17 0 -5 14 -10 30 -10 l30 0 0 -140 c0 -127 2 -142 20 -160 25 -25 80 -26 110 -2 30 25 18 49 -13 27 -30 -21 -53 -19 -71 7 -12 17 -16 50 -16 145 l0 123 55 0 c42 0 55 3 55 15 0 12 -13 15 -55 15 l-55 0 0 65 c0 68 -13 87 -24 34z" />
    <path d="M3716 2609 c-3 -17 -6 -46 -6 -64 0 -28 -4 -33 -30 -38 -16 -4 -30 -11 -30 -17 0 -5 14 -10 30 -10 l30 0 0 -140 c0 -127 2 -142 20 -160 25 -25 80 -26 110 -2 30 25 18 49 -13 27 -30 -21 -53 -19 -71 7 -12 17 -16 50 -16 145 l0 123 55 0 c42 0 55 3 55 15 0 12 -13 15 -55 15 l-55 0 0 65 c0 68 -13 87 -24 34z" />
    <path d="M625 2520 c-86 -36 -122 -163 -72 -260 29 -59 76 -90 135 -90 43 0 132 33 132 49 0 18 -14 19 -38 3 -17 -11 -46 -17 -84 -17 -52 0 -61 4 -89 31 -23 23 -33 44 -36 78 l-6 46 132 0 131 0 0 31 c0 41 -35 102 -70 122 -30 18 -101 22 -135 7z m109 -30 c28 -10 50 -41 60 -82 l6 -28 -115 0 c-129 0 -133 3 -95 66 30 47 89 65 144 44z" />
    <path d="M948 2515 c-33 -19 -48 -44 -48 -83 0 -38 33 -67 104 -92 33 -11 65 -25 72 -31 21 -17 17 -73 -5 -93 -30 -27 -93 -32 -130 -10 -37 22 -55 10 -23 -17 49 -39 147 -34 186 10 10 11 20 37 23 59 7 52 -22 83 -101 108 -58 18 -96 45 -96 68 0 50 84 81 141 52 39 -19 58 -7 29 19 -27 25 -116 31 -152 10z" />
    <path d="M1530 2508 c-55 -38 -74 -71 -78 -141 -6 -113 61 -197 157 -197 54 0 131 32 131 55 0 19 2 19 -55 -6 -99 -44 -195 11 -195 110 l0 31 131 0 132 0 -7 43 c-4 23 -14 52 -22 65 -40 61 -134 80 -194 40z m131 -24 c27 -14 59 -65 59 -94 0 -6 -43 -10 -115 -10 -77 0 -115 4 -115 11 0 6 8 27 17 46 27 57 95 78 154 47z" />
    <path d="M2324 2520 c-43 -17 -82 -76 -89 -135 -16 -121 52 -216 152 -215 39 1 113 36 113 55 0 19 -3 19 -42 -5 -62 -38 -143 -18 -174 42 -12 22 -15 50 -12 99 3 59 8 72 33 99 37 38 84 47 138 26 54 -21 72 -5 26 23 -35 22 -106 27 -145 11z" />
    <path d="M2635 2514 c-40 -21 -59 -40 -51 -53 5 -7 16 -4 35 10 15 11 46 23 67 26 58 7 85 -18 92 -85 l5 -52 -40 0 c-55 0 -131 -24 -159 -51 -34 -32 -33 -91 2 -126 22 -22 32 -25 75 -21 29 3 62 14 79 27 36 26 50 27 50 1 0 -11 7 -20 15 -20 13 0 15 21 15 130 0 142 -10 185 -51 214 -30 20 -95 21 -134 0z m145 -224 c0 -46 -3 -52 -32 -70 -71 -43 -141 -33 -153 21 -11 47 22 75 104 89 84 14 81 15 81 -40z" />
    <path d="M4005 2516 c-89 -40 -122 -157 -72 -256 29 -59 76 -90 136 -90 46 0 131 31 131 48 0 19 -14 19 -57 0 -93 -41 -180 2 -190 96 l-6 46 133 0 133 0 -6 42 c-13 98 -112 154 -202 114z m136 -45 c16 -16 29 -36 29 -44 0 -9 3 -22 6 -31 5 -14 -8 -16 -110 -16 -129 0 -136 5 -97 64 42 63 123 76 172 27z" />
    <path d="M4392 2517 c-13 -7 -32 -27 -43 -43 l-19 -29 0 38 c0 26 -4 37 -15 37 -13 0 -15 -26 -15 -175 0 -149 2 -175 15 -175 12 0 15 20 15 116 0 100 3 121 22 155 25 46 62 63 113 53 33 -6 37 -4 33 12 -4 24 -71 30 -106 11z" />
    <path d="M4614 2511 c-37 -22 -48 -37 -39 -51 4 -6 17 -1 34 11 15 11 46 23 69 26 34 5 44 1 66 -20 20 -20 26 -36 26 -72 0 -43 -1 -45 -30 -45 -105 0 -190 -47 -190 -105 0 -47 8 -64 41 -80 40 -21 68 -19 125 10 59 30 64 31 64 5 0 -11 7 -20 15 -20 13 0 15 21 15 130 0 142 -10 185 -51 214 -32 22 -106 21 -145 -3z m156 -220 c0 -44 -4 -52 -31 -72 -45 -32 -111 -37 -138 -10 -48 48 -9 108 81 121 93 13 88 16 88 -39z" />
    <path d="M4982 2500 l-42 -30 0 25 c0 16 -6 25 -15 25 -13 0 -15 -33 -15 -240 0 -207 2 -240 15 -240 12 0 15 16 15 86 l0 86 34 -21 c72 -45 167 -18 206 58 24 49 27 154 6 206 -32 76 -131 98 -204 45z m117 -11 c19 -7 38 -24 48 -43 22 -42 22 -141 -1 -184 -33 -63 -130 -79 -182 -31 -22 20 -24 31 -24 114 0 82 2 94 23 113 42 39 84 49 136 31z" />
    <path d="M5515 2514 c-40 -21 -59 -40 -51 -53 5 -7 16 -4 35 10 15 11 46 23 67 26 58 7 85 -18 92 -85 l5 -52 -40 0 c-55 0 -131 -24 -159 -51 -34 -32 -33 -91 2 -126 22 -22 32 -25 75 -21 29 3 62 14 79 27 36 26 50 27 50 1 0 -11 7 -20 15 -20 13 0 15 21 15 130 0 142 -10 185 -51 214 -30 20 -95 21 -134 0z m143 -226 c-3 -52 -4 -53 -51 -77 -61 -30 -113 -23 -128 16 -5 15 -9 33 -7 41 5 25 52 53 104 61 89 15 85 17 82 -41z" />
    <path d="M2100 2345 c0 -149 2 -175 15 -175 13 0 15 26 15 175 0 149 -2 175 -15 175 -13 0 -15 -26 -15 -175z" />
    <path d="M5300 2345 c0 -149 2 -175 15 -175 13 0 15 26 15 175 0 149 -2 175 -15 175 -13 0 -15 -26 -15 -175z" />
  </g>
</svg>