<svg width="148" height="55" viewBox="0 0 148 55" fill="none" xmlns="http://www.w3.org/2000/svg">
<g opacity="0.82" filter="url(#filter0_i_2_2)">
<path d="M33.892 27.504C30.748 27.504 28.3 26.376 26.548 24.12C24.796 21.84 23.92 18.624 23.92 14.472C23.92 10.32 24.82 7.116 26.62 4.86C28.42 2.58 30.94 1.44 34.18 1.44C35.5 1.44 36.76 1.608 37.96 1.944C39.184 2.28 40.168 2.76 40.912 3.384C41.656 4.008 42.028 4.728 42.028 5.544C42.028 6.216 41.716 6.804 41.092 7.308C40.492 7.812 39.652 8.052 38.572 8.028C38.188 4.692 36.748 3.024 34.252 3.024C32.38 3.024 30.976 3.972 30.04 5.868C29.128 7.764 28.672 10.632 28.672 14.472C28.672 18.312 29.116 21.18 30.004 23.076C30.916 24.972 32.296 25.92 34.144 25.92C35.44 25.92 36.52 25.452 37.384 24.516C38.248 23.58 38.8 22.2 39.04 20.376C39.184 20.352 39.412 20.34 39.724 20.34C40.54 20.34 41.236 20.532 41.812 20.916C42.388 21.3 42.676 21.84 42.676 22.536C42.676 23.544 42.256 24.42 41.416 25.164C40.576 25.908 39.484 26.484 38.14 26.892C36.796 27.3 35.38 27.504 33.892 27.504ZM54.1358 27.504C51.3758 27.504 49.2278 26.652 47.6918 24.948C46.1798 23.22 45.4238 20.82 45.4238 17.748C45.4238 14.676 46.1798 12.288 47.6918 10.584C49.2278 8.856 51.3758 7.992 54.1358 7.992C56.8718 7.992 58.9958 8.856 60.5078 10.584C62.0438 12.288 62.8118 14.676 62.8118 17.748C62.8118 20.82 62.0438 23.22 60.5078 24.948C58.9958 26.652 56.8718 27.504 54.1358 27.504ZM54.1358 25.956C56.8478 25.956 58.2038 23.22 58.2038 17.748C58.2038 12.276 56.8478 9.54 54.1358 9.54C51.3758 9.54 49.9958 12.276 49.9958 17.748C49.9958 23.22 51.3758 25.956 54.1358 25.956ZM75.6509 7.992C76.9949 7.992 78.0749 8.352 78.8909 9.072C79.7309 9.792 80.1509 10.776 80.1509 12.024C80.1509 12.888 79.8869 13.62 79.3589 14.22C78.8309 14.796 78.1829 15.096 77.4149 15.12C76.9829 15.12 76.5989 15.06 76.2629 14.94C75.9269 14.82 75.6629 14.664 75.4709 14.472C75.7349 14.016 75.9029 13.62 75.9749 13.284C76.0709 12.924 76.1189 12.504 76.1189 12.024C76.1189 10.704 75.5669 10.044 74.4629 10.044C73.5269 10.044 72.7709 10.752 72.1949 12.168C71.6429 13.584 71.3669 15.684 71.3669 18.468C71.3669 21.156 71.4029 22.956 71.4749 23.868C71.5469 24.756 71.7509 25.608 72.0869 26.424C71.8469 26.664 71.5109 26.88 71.0789 27.072C70.6709 27.264 70.1909 27.36 69.6389 27.36C68.9429 27.36 68.3549 27.144 67.8749 26.712C67.3949 26.28 67.1549 25.68 67.1549 24.912V13.104C67.1549 12.432 67.0709 11.952 66.9029 11.664C66.7589 11.376 66.5189 11.232 66.1829 11.232C65.7269 11.232 65.4149 11.388 65.2469 11.7C64.9589 11.22 64.8149 10.74 64.8149 10.26C64.8149 9.588 65.0429 9.048 65.4989 8.64C65.9789 8.232 66.6389 8.028 67.4789 8.028C68.4869 8.028 69.2909 8.364 69.8909 9.036C70.4909 9.684 70.8269 10.656 70.8989 11.952C71.7389 9.312 73.3229 7.992 75.6509 7.992ZM100.272 23.616C100.584 24.072 100.74 24.54 100.74 25.02C100.74 25.692 100.452 26.256 99.8758 26.712C99.2998 27.144 98.5438 27.36 97.6078 27.36C96.4558 27.36 95.5678 26.976 94.9438 26.208C94.3198 25.416 93.9718 24.144 93.8998 22.392C93.2038 23.904 92.2438 25.116 91.0198 26.028C89.7958 26.916 88.3798 27.36 86.7718 27.36C85.3798 27.36 84.2518 26.988 83.3878 26.244C82.5478 25.5 82.1278 24.468 82.1278 23.148C82.1278 21.612 82.7038 20.352 83.8558 19.368C85.0318 18.384 86.5198 17.64 88.3198 17.136C89.9278 16.68 91.7038 16.452 93.6478 16.452V15.516C93.6478 13.476 93.3718 11.964 92.8198 10.98C92.2918 9.996 91.4038 9.504 90.1558 9.504C89.3158 9.504 88.6318 9.732 88.1038 10.188C87.5758 10.62 87.3118 11.316 87.3118 12.276C87.3118 12.828 87.4078 13.344 87.5998 13.824C87.8158 14.304 88.1638 14.664 88.6438 14.904C88.4038 15.168 88.0678 15.372 87.6358 15.516C87.2278 15.636 86.7838 15.696 86.3038 15.696C85.2958 15.696 84.4798 15.384 83.8558 14.76C83.2558 14.136 82.9558 13.356 82.9558 12.42C82.9558 11.004 83.6158 9.912 84.9358 9.144C86.2798 8.376 88.1038 7.992 90.4078 7.992C93.0478 7.992 94.9798 8.616 96.2038 9.864C97.4278 11.088 98.0398 13.068 98.0398 15.804V22.248C98.0398 23.52 98.4478 24.156 99.2638 24.156C99.4318 24.156 99.6118 24.12 99.8038 24.048C99.9958 23.952 100.152 23.808 100.272 23.616ZM88.7158 24.552C89.4598 24.552 90.2278 24.252 91.0198 23.652C91.8118 23.052 92.4718 22.248 92.9998 21.24C93.5278 20.208 93.7918 19.092 93.7918 17.892C91.8718 17.844 90.3478 18.096 89.2198 18.648C88.4758 19.008 87.8878 19.488 87.4558 20.088C87.0238 20.688 86.8078 21.372 86.8078 22.14C86.8078 22.836 86.9638 23.412 87.2758 23.868C87.5878 24.324 88.0678 24.552 88.7158 24.552ZM107.599 27.36C106.279 27.36 105.259 26.94 104.539 26.1C103.819 25.26 103.459 24.096 103.459 22.608V2.88C103.459 2.184 103.687 1.644 104.143 1.26C104.623 0.851998 105.223 0.647998 105.943 0.647998C106.855 0.647998 107.659 0.959998 108.355 1.584C108.091 2.52 107.923 3.492 107.851 4.5C107.779 5.484 107.743 6.852 107.743 8.604L107.707 22.248C107.707 22.872 107.815 23.352 108.031 23.688C108.271 24 108.595 24.156 109.003 24.156C109.243 24.156 109.471 24.12 109.687 24.048C109.903 23.952 110.059 23.808 110.155 23.616C110.467 24.024 110.623 24.492 110.623 25.02C110.623 25.692 110.323 26.256 109.723 26.712C109.123 27.144 108.415 27.36 107.599 27.36ZM7.35391 44.79C7.35391 44.4033 7.29724 44.0467 7.18391 43.72C7.07724 43.3933 6.91724 43.11 6.70391 42.87C6.49057 42.63 6.23057 42.4433 5.92391 42.31C5.61724 42.1767 5.26391 42.11 4.86391 42.11C4.04391 42.11 3.39724 42.3467 2.92391 42.82C2.45724 43.2933 2.16057 43.95 2.03391 44.79H7.35391ZM8.96391 49.55C8.72391 49.83 8.44724 50.0733 8.13391 50.28C7.82057 50.48 7.48724 50.6433 7.13391 50.77C6.78057 50.8967 6.41391 50.99 6.03391 51.05C5.66057 51.11 5.29057 51.14 4.92391 51.14C4.22391 51.14 3.57391 51.0233 2.97391 50.79C2.38057 50.55 1.86391 50.2033 1.42391 49.75C0.990573 49.29 0.650573 48.7233 0.403906 48.05C0.163906 47.37 0.0439063 46.59 0.0439063 45.71C0.0439063 45.0033 0.153906 44.3467 0.373906 43.74C0.593906 43.1267 0.90724 42.5933 1.31391 42.14C1.72724 41.6867 2.23057 41.33 2.82391 41.07C3.41724 40.81 4.08391 40.68 4.82391 40.68C5.44391 40.68 6.01391 40.7833 6.53391 40.99C7.06057 41.19 7.51391 41.4833 7.89391 41.87C8.27391 42.2567 8.57057 42.7333 8.78391 43.3C9.00391 43.8667 9.11391 44.5133 9.11391 45.24C9.11391 45.54 9.08057 45.7433 9.01391 45.85C8.94724 45.95 8.82391 46 8.64391 46H1.98391C2.00391 46.6067 2.09057 47.1367 2.24391 47.59C2.39724 48.0367 2.60724 48.41 2.87391 48.71C3.14724 49.01 3.47057 49.2333 3.84391 49.38C4.21724 49.5267 4.63391 49.6 5.09391 49.6C5.52724 49.6 5.90057 49.55 6.21391 49.45C6.53391 49.35 6.80724 49.2433 7.03391 49.13C7.26724 49.01 7.46057 48.9 7.61391 48.8C7.77391 48.7 7.91391 48.65 8.03391 48.65C8.19391 48.65 8.31724 48.71 8.40391 48.83L8.96391 49.55ZM17.1998 42.59C17.1465 42.6767 17.0898 42.74 17.0298 42.78C16.9698 42.8133 16.8932 42.83 16.7998 42.83C16.6932 42.83 16.5732 42.7933 16.4398 42.72C16.3132 42.6467 16.1565 42.5667 15.9698 42.48C15.7898 42.3933 15.5765 42.3133 15.3298 42.24C15.0832 42.1667 14.7898 42.13 14.4498 42.13C14.1698 42.13 13.9132 42.1667 13.6798 42.24C13.4532 42.3067 13.2598 42.4033 13.0998 42.53C12.9398 42.65 12.8165 42.7967 12.7298 42.97C12.6432 43.1367 12.5998 43.3167 12.5998 43.51C12.5998 43.7633 12.6732 43.9733 12.8198 44.14C12.9732 44.3067 13.1698 44.45 13.4098 44.57C13.6565 44.69 13.9332 44.8 14.2398 44.9C14.5532 44.9933 14.8698 45.0933 15.1898 45.2C15.5165 45.3067 15.8332 45.43 16.1398 45.57C16.4532 45.7033 16.7298 45.8733 16.9698 46.08C17.2165 46.28 17.4132 46.5233 17.5598 46.81C17.7132 47.0967 17.7898 47.4467 17.7898 47.86C17.7898 48.3333 17.7032 48.7733 17.5298 49.18C17.3632 49.58 17.1132 49.9267 16.7798 50.22C16.4532 50.5133 16.0465 50.7433 15.5598 50.91C15.0732 51.0767 14.5165 51.16 13.8898 51.16C13.1898 51.16 12.5432 51.0433 11.9498 50.81C11.3565 50.5767 10.8598 50.28 10.4598 49.92L10.9198 49.17C10.9732 49.0767 11.0398 49.0067 11.1198 48.96C11.1998 48.9067 11.3065 48.88 11.4398 48.88C11.5665 48.88 11.6965 48.9267 11.8298 49.02C11.9632 49.1133 12.1232 49.2167 12.3098 49.33C12.4965 49.4367 12.7232 49.5367 12.9898 49.63C13.2565 49.7167 13.5898 49.76 13.9898 49.76C14.3232 49.76 14.6132 49.72 14.8598 49.64C15.1065 49.5533 15.3098 49.44 15.4698 49.3C15.6365 49.1533 15.7598 48.9867 15.8398 48.8C15.9198 48.6133 15.9598 48.4167 15.9598 48.21C15.9598 47.9433 15.8832 47.7233 15.7298 47.55C15.5832 47.37 15.3865 47.2167 15.1398 47.09C14.8998 46.9633 14.6232 46.8533 14.3098 46.76C13.9965 46.6667 13.6765 46.5667 13.3498 46.46C13.0232 46.3533 12.7032 46.23 12.3898 46.09C12.0765 45.95 11.7965 45.7733 11.5498 45.56C11.3098 45.3467 11.1132 45.0867 10.9598 44.78C10.8132 44.4733 10.7398 44.1 10.7398 43.66C10.7398 43.2667 10.8198 42.89 10.9798 42.53C11.1465 42.17 11.3832 41.8533 11.6898 41.58C12.0032 41.3067 12.3865 41.09 12.8398 40.93C13.2998 40.7633 13.8232 40.68 14.4098 40.68C15.0832 40.68 15.6898 40.7867 16.2298 41C16.7765 41.2133 17.2432 41.5067 17.6298 41.88L17.1998 42.59ZM23.0813 51.16C22.2613 51.16 21.6279 50.93 21.1813 50.47C20.7413 50.01 20.5213 49.3533 20.5213 48.5V42.42H19.3413C19.2279 42.42 19.1313 42.3867 19.0513 42.32C18.9779 42.2467 18.9413 42.14 18.9413 42V41.21L20.5913 40.98L21.0312 37.95C21.0579 37.8367 21.1079 37.75 21.1813 37.69C21.2613 37.6233 21.3613 37.59 21.4813 37.59H22.4713V41H25.3513V42.42H22.4713V48.37C22.4713 48.77 22.5679 49.07 22.7613 49.27C22.9613 49.4633 23.2146 49.56 23.5213 49.56C23.7013 49.56 23.8546 49.5367 23.9813 49.49C24.1146 49.4433 24.2279 49.3933 24.3213 49.34C24.4146 49.28 24.4946 49.2267 24.5613 49.18C24.6279 49.1333 24.6879 49.11 24.7413 49.11C24.8079 49.11 24.8579 49.1267 24.8913 49.16C24.9313 49.1867 24.9713 49.2333 25.0113 49.3L25.5913 50.24C25.2713 50.5333 24.8913 50.76 24.4513 50.92C24.0113 51.08 23.5546 51.16 23.0813 51.16ZM33.8188 44.79C33.8188 44.4033 33.7621 44.0467 33.6488 43.72C33.5421 43.3933 33.3821 43.11 33.1688 42.87C32.9554 42.63 32.6954 42.4433 32.3888 42.31C32.0821 42.1767 31.7288 42.11 31.3288 42.11C30.5088 42.11 29.8621 42.3467 29.3888 42.82C28.9221 43.2933 28.6254 43.95 28.4988 44.79H33.8188ZM35.4288 49.55C35.1888 49.83 34.9121 50.0733 34.5988 50.28C34.2854 50.48 33.9521 50.6433 33.5988 50.77C33.2454 50.8967 32.8788 50.99 32.4988 51.05C32.1254 51.11 31.7554 51.14 31.3888 51.14C30.6888 51.14 30.0388 51.0233 29.4388 50.79C28.8454 50.55 28.3288 50.2033 27.8888 49.75C27.4554 49.29 27.1154 48.7233 26.8688 48.05C26.6288 47.37 26.5088 46.59 26.5088 45.71C26.5088 45.0033 26.6188 44.3467 26.8388 43.74C27.0588 43.1267 27.3721 42.5933 27.7788 42.14C28.1921 41.6867 28.6954 41.33 29.2888 41.07C29.8821 40.81 30.5488 40.68 31.2888 40.68C31.9088 40.68 32.4788 40.7833 32.9988 40.99C33.5254 41.19 33.9788 41.4833 34.3588 41.87C34.7388 42.2567 35.0354 42.7333 35.2488 43.3C35.4688 43.8667 35.5788 44.5133 35.5788 45.24C35.5788 45.54 35.5454 45.7433 35.4788 45.85C35.4121 45.95 35.2888 46 35.1088 46H28.4488C28.4688 46.6067 28.5554 47.1367 28.7088 47.59C28.8621 48.0367 29.0721 48.41 29.3388 48.71C29.6121 49.01 29.9354 49.2333 30.3088 49.38C30.6821 49.5267 31.0988 49.6 31.5588 49.6C31.9921 49.6 32.3654 49.55 32.6788 49.45C32.9988 49.35 33.2721 49.2433 33.4988 49.13C33.7321 49.01 33.9254 48.9 34.0788 48.8C34.2388 48.7 34.3788 48.65 34.4988 48.65C34.6588 48.65 34.7821 48.71 34.8688 48.83L35.4288 49.55ZM34.3788 36.48L32.0088 39.06C31.9088 39.1733 31.8121 39.2533 31.7188 39.3C31.6254 39.34 31.5021 39.36 31.3488 39.36H30.1688L31.6488 36.94C31.7421 36.7867 31.8421 36.6733 31.9488 36.6C32.0621 36.52 32.2354 36.48 32.4688 36.48H34.3788ZM47.2266 51H45.2666V42.42H40.1666V48.37C40.1666 48.77 40.2632 49.07 40.4566 49.27C40.6566 49.4633 40.9099 49.56 41.2166 49.56C41.3966 49.56 41.5499 49.5367 41.6766 49.49C41.8099 49.4433 41.9232 49.3933 42.0166 49.34C42.1099 49.28 42.1899 49.2267 42.2566 49.18C42.3232 49.1333 42.3832 49.11 42.4366 49.11C42.5032 49.11 42.5532 49.1267 42.5866 49.16C42.6266 49.1867 42.6666 49.2333 42.7066 49.3L43.2866 50.24C42.9666 50.5333 42.5866 50.76 42.1466 50.92C41.7066 51.08 41.2499 51.16 40.7766 51.16C39.9566 51.16 39.3232 50.93 38.8766 50.47C38.4366 50.01 38.2166 49.3533 38.2166 48.5V42.42H37.0366C36.9232 42.42 36.8266 42.3867 36.7466 42.32C36.6732 42.2467 36.6366 42.14 36.6366 42V41.21L38.2966 40.98L38.7266 37.95C38.7532 37.8367 38.8032 37.75 38.8766 37.69C38.9566 37.6233 39.0566 37.59 39.1766 37.59H40.1666V41H47.2266V51ZM47.6666 37.64C47.6666 37.82 47.6299 37.9933 47.5566 38.16C47.4832 38.32 47.3832 38.4633 47.2566 38.59C47.1366 38.71 46.9932 38.8067 46.8266 38.88C46.6599 38.9467 46.4866 38.98 46.3066 38.98C46.1266 38.98 45.9566 38.9467 45.7966 38.88C45.6366 38.8067 45.4932 38.71 45.3666 38.59C45.2466 38.4633 45.1499 38.32 45.0766 38.16C45.0099 37.9933 44.9766 37.82 44.9766 37.64C44.9766 37.4533 45.0099 37.2767 45.0766 37.11C45.1499 36.9433 45.2466 36.8 45.3666 36.68C45.4932 36.5533 45.6366 36.4567 45.7966 36.39C45.9566 36.3167 46.1266 36.28 46.3066 36.28C46.4866 36.28 46.6599 36.3167 46.8266 36.39C46.9932 36.4567 47.1366 36.5533 47.2566 36.68C47.3832 36.8 47.4832 36.9433 47.5566 37.11C47.6299 37.2767 47.6666 37.4533 47.6666 37.64ZM57.1775 42.74C57.1175 42.8133 57.0575 42.8733 56.9975 42.92C56.9442 42.96 56.8642 42.98 56.7575 42.98C56.6508 42.98 56.5375 42.94 56.4175 42.86C56.3042 42.7733 56.1575 42.6833 55.9775 42.59C55.8042 42.49 55.5908 42.4 55.3375 42.32C55.0908 42.2333 54.7842 42.19 54.4175 42.19C53.9375 42.19 53.5142 42.2767 53.1475 42.45C52.7808 42.6233 52.4742 42.87 52.2275 43.19C51.9875 43.51 51.8042 43.9 51.6775 44.36C51.5508 44.82 51.4875 45.3367 51.4875 45.91C51.4875 46.5033 51.5542 47.0333 51.6875 47.5C51.8208 47.96 52.0108 48.35 52.2575 48.67C52.5042 48.9833 52.8042 49.2233 53.1575 49.39C53.5108 49.55 53.9042 49.63 54.3375 49.63C54.7575 49.63 55.1042 49.58 55.3775 49.48C55.6508 49.3733 55.8775 49.26 56.0575 49.14C56.2375 49.02 56.3875 48.91 56.5075 48.81C56.6275 48.7033 56.7508 48.65 56.8775 48.65C57.0375 48.65 57.1608 48.71 57.2475 48.83L57.8075 49.55C57.5742 49.8367 57.3108 50.08 57.0175 50.28C56.7308 50.48 56.4242 50.6433 56.0975 50.77C55.7708 50.8967 55.4275 50.99 55.0675 51.05C54.7142 51.11 54.3542 51.14 53.9875 51.14C53.3542 51.14 52.7608 51.0233 52.2075 50.79C51.6608 50.5567 51.1842 50.2167 50.7775 49.77C50.3775 49.3233 50.0608 48.7767 49.8275 48.13C49.5942 47.4767 49.4775 46.7367 49.4775 45.91C49.4775 45.1567 49.5808 44.46 49.7875 43.82C50.0008 43.18 50.3108 42.63 50.7175 42.17C51.1308 41.7033 51.6375 41.34 52.2375 41.08C52.8375 40.8133 53.5242 40.68 54.2975 40.68C55.0242 40.68 55.6642 40.7967 56.2175 41.03C56.7708 41.2633 57.2642 41.5933 57.6975 42.02L57.1775 42.74ZM65.0878 46.49C64.2945 46.5167 63.6211 46.58 63.0678 46.68C62.5145 46.7733 62.0645 46.9 61.7178 47.06C61.3711 47.22 61.1211 47.41 60.9678 47.63C60.8145 47.8433 60.7378 48.0833 60.7378 48.35C60.7378 48.6033 60.7778 48.8233 60.8578 49.01C60.9445 49.19 61.0578 49.34 61.1978 49.46C61.3445 49.5733 61.5145 49.6567 61.7078 49.71C61.9011 49.7633 62.1111 49.79 62.3378 49.79C62.6378 49.79 62.9111 49.76 63.1578 49.7C63.4111 49.64 63.6478 49.5567 63.8678 49.45C64.0878 49.3367 64.2978 49.2 64.4978 49.04C64.6978 48.88 64.8945 48.6967 65.0878 48.49V46.49ZM59.3678 42.26C59.9345 41.72 60.5478 41.3167 61.2078 41.05C61.8745 40.7833 62.6045 40.65 63.3978 40.65C63.9778 40.65 64.4911 40.7467 64.9378 40.94C65.3845 41.1267 65.7611 41.39 66.0678 41.73C66.3745 42.07 66.6045 42.4767 66.7578 42.95C66.9178 43.4233 66.9978 43.9467 66.9978 44.52V51H66.1278C65.9345 51 65.7878 50.97 65.6878 50.91C65.5878 50.8433 65.5078 50.7233 65.4478 50.55L65.2378 49.66C64.9778 49.9 64.7211 50.1133 64.4678 50.3C64.2145 50.48 63.9478 50.6367 63.6678 50.77C63.3945 50.8967 63.1011 50.9933 62.7878 51.06C62.4745 51.1267 62.1278 51.16 61.7478 51.16C61.3478 51.16 60.9711 51.1067 60.6178 51C60.2711 50.8867 59.9678 50.7167 59.7078 50.49C59.4478 50.2633 59.2411 49.98 59.0878 49.64C58.9411 49.3 58.8678 48.9033 58.8678 48.45C58.8678 48.05 58.9745 47.6667 59.1878 47.3C59.4078 46.9267 59.7611 46.5933 60.2478 46.3C60.7411 46.0067 61.3811 45.7667 62.1678 45.58C62.9611 45.3933 63.9345 45.2867 65.0878 45.26V44.52C65.0878 43.7533 64.9245 43.18 64.5978 42.8C64.2711 42.42 63.7911 42.23 63.1578 42.23C62.7311 42.23 62.3711 42.2833 62.0778 42.39C61.7911 42.4967 61.5411 42.6167 61.3278 42.75C61.1211 42.8767 60.9378 42.9933 60.7778 43.1C60.6245 43.2067 60.4645 43.26 60.2978 43.26C60.1645 43.26 60.0478 43.2233 59.9478 43.15C59.8545 43.0767 59.7778 42.99 59.7178 42.89L59.3678 42.26ZM83.0391 40.84L77.3991 53.95C77.3391 54.0967 77.2591 54.21 77.1591 54.29C77.0591 54.37 76.9124 54.41 76.7191 54.41H75.2691L77.1291 50.36L72.9591 40.84H74.6591C74.8257 40.84 74.9557 40.88 75.0491 40.96C75.1424 41.04 75.2091 41.13 75.2491 41.23L77.8291 47.33C77.8824 47.4833 77.9324 47.64 77.9791 47.8C78.0324 47.9533 78.0757 48.1067 78.1091 48.26C78.1557 48.1 78.2057 47.9433 78.2591 47.79C78.3124 47.63 78.3691 47.4733 78.4291 47.32L80.9191 41.23C80.9657 41.1167 81.0391 41.0233 81.1391 40.95C81.2391 40.8767 81.3524 40.84 81.4791 40.84H83.0391ZM92.2805 51.16C91.4605 51.16 90.8271 50.93 90.3805 50.47C89.9405 50.01 89.7205 49.3533 89.7205 48.5V42.42H88.5405C88.4271 42.42 88.3305 42.3867 88.2505 42.32C88.1771 42.2467 88.1405 42.14 88.1405 42V41.21L89.7905 40.98L90.2305 37.95C90.2571 37.8367 90.3071 37.75 90.3805 37.69C90.4605 37.6233 90.5605 37.59 90.6805 37.59H91.6705V41H94.5505V42.42H91.6705V48.37C91.6705 48.77 91.7671 49.07 91.9605 49.27C92.1605 49.4633 92.4138 49.56 92.7205 49.56C92.9005 49.56 93.0538 49.5367 93.1805 49.49C93.3138 49.4433 93.4271 49.3933 93.5205 49.34C93.6138 49.28 93.6938 49.2267 93.7605 49.18C93.8271 49.1333 93.8871 49.11 93.9405 49.11C94.0071 49.11 94.0571 49.1267 94.0905 49.16C94.1305 49.1867 94.1705 49.2333 94.2105 49.3L94.7905 50.24C94.4705 50.5333 94.0905 50.76 93.6505 50.92C93.2105 51.08 92.7538 51.16 92.2805 51.16ZM103.018 44.79C103.018 44.4033 102.961 44.0467 102.848 43.72C102.741 43.3933 102.581 43.11 102.368 42.87C102.155 42.63 101.895 42.4433 101.588 42.31C101.281 42.1767 100.928 42.11 100.528 42.11C99.708 42.11 99.0613 42.3467 98.588 42.82C98.1213 43.2933 97.8246 43.95 97.698 44.79H103.018ZM104.628 49.55C104.388 49.83 104.111 50.0733 103.798 50.28C103.485 50.48 103.151 50.6433 102.798 50.77C102.445 50.8967 102.078 50.99 101.698 51.05C101.325 51.11 100.955 51.14 100.588 51.14C99.888 51.14 99.238 51.0233 98.638 50.79C98.0446 50.55 97.528 50.2033 97.088 49.75C96.6546 49.29 96.3146 48.7233 96.068 48.05C95.828 47.37 95.708 46.59 95.708 45.71C95.708 45.0033 95.818 44.3467 96.038 43.74C96.258 43.1267 96.5713 42.5933 96.978 42.14C97.3913 41.6867 97.8946 41.33 98.488 41.07C99.0813 40.81 99.748 40.68 100.488 40.68C101.108 40.68 101.678 40.7833 102.198 40.99C102.725 41.19 103.178 41.4833 103.558 41.87C103.938 42.2567 104.235 42.7333 104.448 43.3C104.668 43.8667 104.778 44.5133 104.778 45.24C104.778 45.54 104.745 45.7433 104.678 45.85C104.611 45.95 104.488 46 104.308 46H97.648C97.668 46.6067 97.7546 47.1367 97.908 47.59C98.0613 48.0367 98.2713 48.41 98.538 48.71C98.8113 49.01 99.1346 49.2333 99.508 49.38C99.8813 49.5267 100.298 49.6 100.758 49.6C101.191 49.6 101.565 49.55 101.878 49.45C102.198 49.35 102.471 49.2433 102.698 49.13C102.931 49.01 103.125 48.9 103.278 48.8C103.438 48.7 103.578 48.65 103.698 48.65C103.858 48.65 103.981 48.71 104.068 48.83L104.628 49.55ZM108.714 42.79C109.041 42.1233 109.434 41.6 109.894 41.22C110.354 40.84 110.907 40.65 111.554 40.65C111.774 40.65 111.981 40.6767 112.174 40.73C112.374 40.7767 112.547 40.85 112.694 40.95L112.564 42.42C112.517 42.6 112.407 42.69 112.234 42.69C112.141 42.69 112.001 42.6733 111.814 42.64C111.627 42.6 111.427 42.58 111.214 42.58C110.901 42.58 110.624 42.6267 110.384 42.72C110.144 42.8067 109.927 42.94 109.734 43.12C109.547 43.2933 109.381 43.51 109.234 43.77C109.087 44.0233 108.951 44.3133 108.824 44.64V51H106.874V40.84H107.994C108.207 40.84 108.351 40.88 108.424 40.96C108.504 41.0333 108.561 41.1667 108.594 41.36L108.714 42.79ZM119.502 46.49C118.709 46.5167 118.035 46.58 117.482 46.68C116.929 46.7733 116.479 46.9 116.132 47.06C115.785 47.22 115.535 47.41 115.382 47.63C115.229 47.8433 115.152 48.0833 115.152 48.35C115.152 48.6033 115.192 48.8233 115.272 49.01C115.359 49.19 115.472 49.34 115.612 49.46C115.759 49.5733 115.929 49.6567 116.122 49.71C116.315 49.7633 116.525 49.79 116.752 49.79C117.052 49.79 117.325 49.76 117.572 49.7C117.825 49.64 118.062 49.5567 118.282 49.45C118.502 49.3367 118.712 49.2 118.912 49.04C119.112 48.88 119.309 48.6967 119.502 48.49V46.49ZM113.782 42.26C114.349 41.72 114.962 41.3167 115.622 41.05C116.289 40.7833 117.019 40.65 117.812 40.65C118.392 40.65 118.905 40.7467 119.352 40.94C119.799 41.1267 120.175 41.39 120.482 41.73C120.789 42.07 121.019 42.4767 121.172 42.95C121.332 43.4233 121.412 43.9467 121.412 44.52V51H120.542C120.349 51 120.202 50.97 120.102 50.91C120.002 50.8433 119.922 50.7233 119.862 50.55L119.652 49.66C119.392 49.9 119.135 50.1133 118.882 50.3C118.629 50.48 118.362 50.6367 118.082 50.77C117.809 50.8967 117.515 50.9933 117.202 51.06C116.889 51.1267 116.542 51.16 116.162 51.16C115.762 51.16 115.385 51.1067 115.032 51C114.685 50.8867 114.382 50.7167 114.122 50.49C113.862 50.2633 113.655 49.98 113.502 49.64C113.355 49.3 113.282 48.9033 113.282 48.45C113.282 48.05 113.389 47.6667 113.602 47.3C113.822 46.9267 114.175 46.5933 114.662 46.3C115.155 46.0067 115.795 45.7667 116.582 45.58C117.375 45.3933 118.349 45.2867 119.502 45.26V44.52C119.502 43.7533 119.339 43.18 119.012 42.8C118.685 42.42 118.205 42.23 117.572 42.23C117.145 42.23 116.785 42.2833 116.492 42.39C116.205 42.4967 115.955 42.6167 115.742 42.75C115.535 42.8767 115.352 42.9933 115.192 43.1C115.039 43.2067 114.879 43.26 114.712 43.26C114.579 43.26 114.462 43.2233 114.362 43.15C114.269 43.0767 114.192 42.99 114.132 42.89L113.782 42.26ZM125.972 48.5C126.292 48.92 126.636 49.2133 127.002 49.38C127.376 49.5467 127.792 49.63 128.252 49.63C129.146 49.63 129.836 49.31 130.322 48.67C130.816 48.0233 131.062 47.0833 131.062 45.85C131.062 45.2033 131.006 44.6533 130.892 44.2C130.786 43.74 130.626 43.3667 130.412 43.08C130.206 42.7867 129.949 42.5733 129.642 42.44C129.336 42.3 128.989 42.23 128.602 42.23C128.036 42.23 127.542 42.3567 127.122 42.61C126.709 42.8633 126.326 43.2233 125.972 43.69V48.5ZM125.872 42.36C126.086 42.1067 126.312 41.8767 126.552 41.67C126.799 41.4567 127.062 41.2767 127.342 41.13C127.622 40.9767 127.919 40.86 128.232 40.78C128.552 40.6933 128.892 40.65 129.252 40.65C129.832 40.65 130.356 40.7633 130.822 40.99C131.296 41.2167 131.699 41.55 132.032 41.99C132.366 42.43 132.622 42.9733 132.802 43.62C132.989 44.2667 133.082 45.01 133.082 45.85C133.082 46.6033 132.979 47.3033 132.772 47.95C132.572 48.59 132.282 49.1467 131.902 49.62C131.529 50.0933 131.069 50.4667 130.522 50.74C129.982 51.0067 129.372 51.14 128.692 51.14C128.086 51.14 127.566 51.04 127.132 50.84C126.699 50.64 126.312 50.36 125.972 50V54.41H124.022V40.84H125.192C125.466 40.84 125.636 40.97 125.702 41.23L125.872 42.36ZM137.312 40.84V51H135.362V40.84H137.312ZM137.682 37.7C137.682 37.88 137.646 38.0533 137.572 38.22C137.499 38.38 137.399 38.5233 137.272 38.65C137.152 38.77 137.009 38.8667 136.842 38.94C136.676 39.0067 136.502 39.04 136.322 39.04C136.142 39.04 135.972 39.0067 135.812 38.94C135.652 38.8667 135.509 38.77 135.382 38.65C135.262 38.5233 135.166 38.38 135.092 38.22C135.026 38.0533 134.992 37.88 134.992 37.7C134.992 37.5133 135.026 37.34 135.092 37.18C135.166 37.0133 135.262 36.87 135.382 36.75C135.509 36.6233 135.652 36.5267 135.812 36.46C135.972 36.3867 136.142 36.35 136.322 36.35C136.502 36.35 136.676 36.3867 136.842 36.46C137.009 36.5267 137.152 36.6233 137.272 36.75C137.399 36.87 137.499 37.0133 137.572 37.18C137.646 37.34 137.682 37.5133 137.682 37.7ZM145.596 46.49C144.802 46.5167 144.129 46.58 143.576 46.68C143.022 46.7733 142.572 46.9 142.226 47.06C141.879 47.22 141.629 47.41 141.476 47.63C141.322 47.8433 141.246 48.0833 141.246 48.35C141.246 48.6033 141.286 48.8233 141.366 49.01C141.452 49.19 141.566 49.34 141.706 49.46C141.852 49.5733 142.022 49.6567 142.216 49.71C142.409 49.7633 142.619 49.79 142.846 49.79C143.146 49.79 143.419 49.76 143.666 49.7C143.919 49.64 144.156 49.5567 144.376 49.45C144.596 49.3367 144.806 49.2 145.006 49.04C145.206 48.88 145.402 48.6967 145.596 48.49V46.49ZM139.876 42.26C140.442 41.72 141.056 41.3167 141.716 41.05C142.382 40.7833 143.112 40.65 143.906 40.65C144.486 40.65 144.999 40.7467 145.446 40.94C145.892 41.1267 146.269 41.39 146.576 41.73C146.882 42.07 147.112 42.4767 147.266 42.95C147.426 43.4233 147.506 43.9467 147.506 44.52V51H146.636C146.442 51 146.296 50.97 146.196 50.91C146.096 50.8433 146.016 50.7233 145.956 50.55L145.746 49.66C145.486 49.9 145.229 50.1133 144.976 50.3C144.722 50.48 144.456 50.6367 144.176 50.77C143.902 50.8967 143.609 50.9933 143.296 51.06C142.982 51.1267 142.636 51.16 142.256 51.16C141.856 51.16 141.479 51.1067 141.126 51C140.779 50.8867 140.476 50.7167 140.216 50.49C139.956 50.2633 139.749 49.98 139.596 49.64C139.449 49.3 139.376 48.9033 139.376 48.45C139.376 48.05 139.482 47.6667 139.696 47.3C139.916 46.9267 140.269 46.5933 140.756 46.3C141.249 46.0067 141.889 45.7667 142.676 45.58C143.469 45.3933 144.442 45.2867 145.596 45.26V44.52C145.596 43.7533 145.432 43.18 145.106 42.8C144.779 42.42 144.299 42.23 143.666 42.23C143.239 42.23 142.879 42.2833 142.586 42.39C142.299 42.4967 142.049 42.6167 141.836 42.75C141.629 42.8767 141.446 42.9933 141.286 43.1C141.132 43.2067 140.972 43.26 140.806 43.26C140.672 43.26 140.556 43.2233 140.456 43.15C140.362 43.0767 140.286 42.99 140.226 42.89L139.876 42.26Z" fill="black"/>
</g>
<defs>
<filter id="filter0_i_2_2" x="0.0439072" y="0.647995" width="147.462" height="57.762" filterUnits="userSpaceOnUse" color-interpolation-filters="sRGB">
<feFlood flood-opacity="0" result="BackgroundImageFix"/>
<feBlend mode="normal" in="SourceGraphic" in2="BackgroundImageFix" result="shape"/>
<feColorMatrix in="SourceAlpha" type="matrix" values="0 0 0 0 0 0 0 0 0 0 0 0 0 0 0 0 0 0 127 0" result="hardAlpha"/>
<feOffset dy="4"/>
<feGaussianBlur stdDeviation="2"/>
<feComposite in2="hardAlpha" operator="arithmetic" k2="-1" k3="1"/>
<feColorMatrix type="matrix" values="0 0 0 0 0 0 0 0 0 0 0 0 0 0 0 0 0 0 0.25 0"/>
<feBlend mode="normal" in2="shape" result="effect1_innerShadow_2_2"/>
</filter>
</defs>
</svg>
